<svg id="Layer_1" data-name="Layer 1" xmlns="http://www.w3.org/2000/svg" viewBox="0 0 200 169.8"><defs><style>.cls-1{fill:#3d3c3c;}.cls-2{fill:#efc307;}</style></defs><title>Untitled-1</title><g id="Layer_2" data-name="Layer 2"><path class="cls-1" d="M73.3,59.67c-.82.92-1.14,2.28-1.2,4.63-.07,3.27.52,6.5.53,9.77l0,11.13a5,5,0,0,0,7.95,4.11,37.88,37.88,0,0,1,22.46-7.42A33.25,33.25,0,0,1,130,96.44c7.05,10.36,5.77,21.82,7.5,33.69a58.55,58.55,0,0,0,53.46,50,8.36,8.36,0,0,0,9-7.65c0-.23,0-.46,0-.7l0-13.8a8.38,8.38,0,0,0-6.24-8.06,50,50,0,0,1-11.8-4.61c-5.55-3.12-10.41-7.73-13-13.57-2.66-6.1-2.63-13-3.34-19.61-1.93-18.07-10.32-36-25-46.66-9.56-7-21.32-10.54-33.12-11.25a86.2,86.2,0,0,0-19.64,1.2c-3.24.56-6.46,1.29-9.64,2.14C75.76,58.18,74.22,58.64,73.3,59.67Z" transform="translate(0 -15.1)"/><path class="cls-1" d="M134.91,20.53V55.78s23,13.32,29,33.19h1.58V83.61h25.86a7.27,7.27,0,0,0,7.27-7.27h0V61.57a7.27,7.27,0,0,0-7.27-7.27H165.49s2.72-32.64-23.94-39A5.41,5.41,0,0,0,134.91,20.53Z" transform="translate(0 -15.1)"/><path class="cls-1" d="M147.81,150.27" transform="translate(0 -15.1)"/><path class="cls-2" d="M6.7,43.59a6.52,6.52,0,0,0-6.45,6.5V67.87c0,1.33-.82,3.61.5,4.56,1.05.74,3.39.53,4.68.82A41.12,41.12,0,0,1,11,74.93a32.39,32.39,0,0,1,17.67,15.8A1.22,1.22,0,0,0,31,90.2l-.07-29.12a11.21,11.21,0,0,0-2.67-7.23A28.15,28.15,0,0,0,6.7,43.59Z" transform="translate(0 -15.1)"/><path class="cls-2" d="M4.73,161.1v19.32a4.44,4.44,0,0,0,5.11,4.43c7.77-1.09,22.88-4.68,34.61-16.4a6.2,6.2,0,0,0,.65-8,67.57,67.57,0,0,1-9.59-20.31,1.73,1.73,0,0,0-3.19-.35c-3.2,5.92-10.47,16-23.36,16.87A4.5,4.5,0,0,0,4.73,161.1Z" transform="translate(0 -15.1)"/><path class="cls-1" d="M39.42,16.21c6.27.92,18.09,4.12,24.38,15.31a13.9,13.9,0,0,1,1.74,6.85V101.3c0,16.8,1.12,31.81,14.36,44.12,5.56,5.15,12.52,8.34,20.2,7.78,6.79-.49,12.9-3.69,18.51-7.32l.07,0a10.64,10.64,0,0,1,15.48,4.7,40.35,40.35,0,0,0,3.8,6.95,10.76,10.76,0,0,1-2.54,15c-9.49,6.71-26.89,13.81-54.28,7-45.39-11.35-45.86-69.51-45.86-69.51V19.8a3.63,3.63,0,0,1,3.62-3.63A3,3,0,0,1,39.42,16.21Z" transform="translate(0 -15.1)"/><path class="cls-2" d="M90,154.55c-3.59,5.29-10.51,18.74,4.57,27.26,0,0,18.7,3.07,35.41-6,0,0-25.68-3.33-12.69-29.1,0,0-12,8.16-23.29,6.14A4,4,0,0,0,90,154.55Z" transform="translate(0 -15.1)"/></g></svg>